<svg width="123" height="25" viewBox="0 0 123 25" fill="none" xmlns="http://www.w3.org/2000/svg">
<path d="M45.9207 16.445H38.7702L37.6004 18.9549H34.819L40.9428 5.65002H43.76L49.8839 18.9549H47.0667L45.9087 16.445H45.9207ZM42.3395 8.45044L39.8088 14.121H44.8821L42.3514 8.45044H42.3395Z" fill="white"/>
<path d="M60.4125 5.62759H62.991V18.9557H61.3914L54.2051 9.98508V18.9557H51.6266V5.65083H53.7157L60.4125 13.8894V5.61597V5.62759Z" fill="white"/>
<path d="M79.3694 12.3791C79.3216 15.8186 77.1729 19.2581 72.3622 19.2581C67.5515 19.2581 65.3311 15.9 65.3311 12.4024C65.3311 8.90474 67.635 5.39551 72.3622 5.39551C77.0655 5.39551 79.4052 8.90475 79.3694 12.3907V12.3791ZM67.8738 12.4372C67.9335 14.6218 69.1391 16.969 72.3622 16.969C75.5853 16.969 76.7909 14.6102 76.8387 12.4256C76.8864 10.1829 75.5853 7.68465 72.3622 7.68465C69.1391 7.67303 67.8021 10.2062 67.8738 12.4488V12.4372Z" fill="white"/>
<path d="M93.694 12.1921C93.7537 15.5503 91.6408 18.9549 86.8539 18.9549H81.4821V5.65006H86.8539C91.5453 5.63844 93.6343 8.89203 93.694 12.1805V12.1921ZM84.0367 16.5496H86.8539C89.9576 16.5496 91.1872 14.3418 91.1275 12.1805C91.0678 10.1005 89.8144 8.03216 86.8539 8.03216H84.0367V16.5496Z" fill="white"/>
<path d="M109.403 12.3791C109.356 15.8186 107.207 19.2581 102.396 19.2581C97.5855 19.2581 95.3652 15.9 95.3652 12.4024C95.3652 8.90474 97.6691 5.39551 102.396 5.39551C107.1 5.39551 109.439 8.90475 109.403 12.3907V12.3791ZM97.9078 12.4372C97.9675 14.6218 99.1732 16.969 102.396 16.969C105.619 16.969 106.825 14.6102 106.873 12.4256C106.92 10.1829 105.619 7.68465 102.396 7.68465C99.1732 7.67303 97.8362 10.2062 97.9078 12.4488V12.4372Z" fill="white"/>
<path d="M120.517 8.85741C120.04 8.10211 118.762 7.38167 117.27 7.38167C115.36 7.38167 114.441 8.16021 114.441 9.14791C114.441 10.3099 115.85 10.6236 117.497 10.8212C120.35 11.1582 123 11.8902 123 15.0625C123 18.0372 120.314 19.3038 117.258 19.3038C114.477 19.3038 112.316 18.4671 111.301 16.0386L113.45 14.9579C114.047 16.422 115.635 17.0727 117.294 17.0727C118.953 17.0727 120.445 16.515 120.445 15.0741C120.445 13.8075 119.096 13.3079 117.282 13.1219C114.501 12.7966 111.91 12.0761 111.91 9.08981C111.91 6.34749 114.68 5.22036 117.198 5.20874C119.335 5.20874 121.532 5.78974 122.57 7.85809L120.517 8.85741Z" fill="white"/>
<path d="M26.9081 20.3183H24.1278L22.7356 17.9814L21.3475 15.6406L19.0064 11.7002L20.3986 9.35938L24.1278 15.6406L25.5158 17.9814L26.9081 20.3183Z" fill="#939FB3"/>
<path d="M16.2301 2.34085L16.1348 2.49798L14.842 4.6817L5.55233 20.3183H2.77619L14.842 0L16.2301 2.34085Z" fill="url(#paint0_linear_457_1425)"/>
<path d="M29.684 25H0L1.38807 22.6591H28.1095L28.2255 22.5463L28.2959 22.6591L29.684 25Z" fill="url(#paint1_linear_457_1425)"/>
<path d="M21.3474 20.3183H8.33264L9.37266 18.5616L11.1129 15.6406L14.8421 9.35938L16.2301 11.7002L14.8421 14.0411L13.8932 15.6406L12.501 17.9814H19.9593L21.3474 20.3183Z" fill="white"/>
<path d="M17.6224 9.35944L19.0063 7.01859L17.6224 4.68176L16.2302 7.01859L17.6224 9.35944Z" fill="#939FB3"/>
<defs>
<linearGradient id="paint0_linear_457_1425" x1="4.0724" y1="-2.12038e-07" x2="30.5977" y2="28.3437" gradientUnits="userSpaceOnUse">
<stop stop-color="#0090D7"/>
<stop offset="1" stop-color="#2640E4"/>
</linearGradient>
<linearGradient id="paint1_linear_457_1425" x1="4.0724" y1="-2.12038e-07" x2="30.5977" y2="28.3437" gradientUnits="userSpaceOnUse">
<stop stop-color="#0090D7"/>
<stop offset="1" stop-color="#2640E4"/>
</linearGradient>
</defs>
</svg>
